<svg width="30" height="30" fill="none" xmlns="http://www.w3.org/2000/svg"><path d="M14.996 9.998A5.013 5.013 0 009.994 15a5.013 5.013 0 005.002 5.002A5.013 5.013 0 0019.998 15a5.013 5.013 0 00-5.002-5.002zM29.998 15c0-2.071.02-4.124-.097-6.192-.117-2.401-.664-4.533-2.42-6.289C25.72.76 23.592.215 21.19.1 19.12-.018 17.067 0 15 0c-2.072 0-4.124-.019-6.192.098-2.401.116-4.533.664-6.289 2.42C.759 4.28.215 6.407.099 8.81-.018 10.878 0 12.931 0 15c0 2.068-.019 4.124.098 6.192.116 2.401.664 4.533 2.42 6.289 1.76 1.76 3.888 2.304 6.29 2.42 2.07.117 4.123.098 6.19.098 2.072 0 4.125.019 6.192-.098 2.402-.116 4.533-.664 6.29-2.42 1.76-1.76 2.303-3.888 2.42-6.29.12-2.067.097-4.12.097-6.191zm-15.002 7.696A7.685 7.685 0 017.3 15a7.686 7.686 0 017.696-7.696A7.686 7.686 0 0122.692 15a7.686 7.686 0 01-7.696 7.696zm8.011-13.91a1.795 1.795 0 01-1.797-1.798c0-.994.803-1.797 1.797-1.797a1.795 1.795 0 011.662 2.486 1.794 1.794 0 01-1.662 1.109z" fill="#F7A600"/></svg>