<svg width="30" height="30" fill="none" xmlns="http://www.w3.org/2000/svg"><path d="M14.51 15.512c-4.357 0-7.978-3.52-7.978-7.683C6.532 3.52 10.152 0 14.512 0c4.506 0 7.978 3.519 7.978 7.829a7.609 7.609 0 01-2.341 5.443 8.046 8.046 0 01-5.613 2.241l-.026-.001zm0-10.986c-1.845 0-3.248 1.507-3.248 3.304 0 1.794 1.403 3.16 3.25 3.16 1.92 0 3.25-1.366 3.25-3.16 0-1.798-1.33-3.304-3.252-3.304zm3.177 17.379l4.508 4.237c.887.932.887 2.297 0 3.16-.959.93-2.438.93-3.177 0l-4.507-4.31-4.358 4.31c-.443.43-1.035.644-1.701.644-.517 0-1.108-.216-1.626-.645-.887-.862-.887-2.227 0-3.16l4.58-4.238a21.111 21.111 0 01-4.723-2.008c-1.11-.575-1.33-2.01-.739-3.089.739-1.077 2.068-1.363 3.251-.645a10.427 10.427 0 005.319 1.454c1.876 0 3.717-.503 5.319-1.454 1.182-.718 2.584-.432 3.25.645.665 1.079.368 2.513-.667 3.089-1.402.862-3.028 1.509-4.727 2.011l-.002-.001z" fill="#F7A600"/></svg>