<svg width="32" height="30" fill="none" xmlns="http://www.w3.org/2000/svg"><path d="M20.91 0h-9.823C2.123 0-.002 1.992-.002 10.396v9.209c0 8.404 2.125 10.396 11.089 10.396h9.823c8.964 0 11.089-1.992 11.089-10.396v-9.21C31.999 1.993 29.853 0 20.91 0zm4.922 21.401h-2.323c-.88 0-1.151-.654-2.734-2.158-1.375-1.25-1.984-1.415-2.323-1.415-.479 0-.615.126-.615.742v1.968c0 .528-.177.845-1.667.845-2.464 0-5.198-1.397-7.115-4-2.891-3.814-3.682-6.67-3.682-7.26 0-.319.135-.616.786-.616h2.328c.59 0 .813.254 1.042.845 1.151 3.115 3.068 5.844 3.859 5.844.292 0 .427-.126.427-.825v-3.217c-.089-1.484-.922-1.612-.922-2.139 0-.254.224-.508.583-.508h3.661c.495 0 .677.254.677.8v4.341c0 .47.224.635.359.635.292 0 .542-.166 1.083-.674 1.672-1.758 2.87-4.468 2.87-4.468.156-.318.427-.615 1.016-.615h2.328c.698 0 .854.337.698.805-.292 1.27-3.141 5.04-3.141 5.04-.245.38-.339.546 0 .97.25.318 1.063.977 1.604 1.568.995 1.06 1.76 1.948 1.964 2.563.229.61-.109.928-.766.928l.003.001z" fill="#F7A600"/></svg>